# AST/ASF file generated using VICON BodyLanguage
# -----------------------------------------------
:version 1.10
:name VICON
:units
  mass 1.0
  length 0.45
  angle deg
:documentation
   .ast/.asf automatically generated from VICON data using
   VICON BodyBuilder and BodyLanguage model FoxedUp or BRILLIANT.MOD
:root
   order TX TY TZ RX RY RZ
   axis XYZ
   position 0 0 0  
   orientation 0 0 0 
:bonedata
  begin
     id 1 
     name lhipjoint
     direction 0.578396 -0.714046 0.394458 
     length 2.21935 
     axis 0 0 0  XYZ
  end
  begin
     id 2 
     name lfemur
     direction 0.34202 -0.939693 0  
     length 6.39105  
     axis 0 0 20  XYZ
    dof rx ry rz
    limits (-160.0 20.0)
           (-70.0 70.0)
           (-60.0 70.0)
  end
  begin
     id 3 
     name ltibia
     direction 0.34202 -0.939693 0   
     length 6.99037   
     axis 0 0 20   XYZ
    dof rx
    limits (-10.0 170.0)
  end
  begin
     id 4 
     name lfoot
     direction 0.0582372 -0.160005 0.985397   
     length 2.06111   
     axis -90 7.62852e-016 20   XYZ
    dof rx rz
    limits (-45.0 90.0)
           (-70.0 20.0)
  end
  begin
     id 5 
     name ltoes
     direction 1.53556e-011 -4.21875e-011 1   
     length 1.04074   
     axis -90 7.62852e-016 20   XYZ
    dof rx
    limits (-90.0 20.0)
  end
  begin
     id 6 
     name rhipjoint
     direction -0.558179 -0.726269 0.40121   
     length 2.182  
     axis 0 0 0  XYZ 
  end
  begin
     id 7 
     name rfemur
     direction -0.34202 -0.939693 0   
     length 6.51172   
     axis 0 0 -20   XYZ
    dof rx ry rz
    limits (-160.0 20.0)
           (-70.0 70.0)
           (-70.0 60.0)
  end
  begin
     id 8 
     name rtibia
     direction -0.34202 -0.939693 0   
     length 7.02607   
     axis 0 0 -20   XYZ
    dof rx
    limits (-10.0 170.0)
 end
 begin
     id 9 
     name rfoot
     direction -0.0788856 -0.216737 0.973038   
     length 1.96734  
     axis -90 -7.62852e-016 -20   XYZ
    dof rx rz
    limits (-45.0 90.0)
           (-20.0 70.0)
  end
  begin
     id 10 
     name rtoes
     direction -1.53567e-011 -4.21783e-011 1   
     length 0.990825   
     axis -90 -7.62852e-016 -20   XYZ
    dof rx
    limits (-90.0 20.0)
  end
  begin
     id 11 
     name lowerback
     direction 0.00668177 0.999323 -0.0361741   
     length 1.7655   
     axis 0 0 0   XYZ
    dof rx ry rz
    limits (-20.0 45.0)
           (-30.0 30.0)
           (-30.0 30.0)
  end
  begin
     id 12 
     name upperback
     direction -0.00222086 0.99851 0.0545167   
     length 1.74912   
     axis 0 0 0   XYZ
    dof rx ry rz
    limits (-20.0 45.0)
           (-30.0 30.0)
           (-30.0 30.0)
  end
  begin
     id 13 
     name thorax
     direction -0.00733971 0.997496 0.0703443   
     length 1.75715   
     axis 0 0 0   XYZ
    dof rx ry rz
    limits (-20.0 45.0)
           (-30.0 30.0)
           (-30.0 30.0)
  end
  begin
     id 14 
     name lowerneck
     direction 0.0279797 0.994795 0.0979765   
     length 1.46939   
     axis 0 0 0   XYZ
    dof rx ry rz
    limits (-20.0 45.0)
           (-30.0 30.0)
           (-30.0 30.0)
  end
  begin
     id 15 
     name upperneck
     direction 0.00339187 0.976776 -0.214238   
     length 1.48018   
     axis 0 0 0   XYZ
    dof rx ry rz
    limits (-20.0 45.0)
           (-30.0 30.0)
           (-30.0 30.0)
  end
  begin
     id 16
     name head
     direction -0.00263506 0.996603 -0.0823096  
     length 1.4976  
     axis 0 0 0   XYZ
    dof rx ry rz
    limits (-20.0 45.0)
           (-30.0 30.0)
           (-30.0 30.0)
  end
  begin
     id 17 
     name lclavicle
     direction 0.894044 0.44508 -0.0508781  
     length 3.03024  
     axis 0 0 0   XYZ
    dof ry rz
    limits (-20.0 10.0)
           (0.0 20.0)
  end
  begin
     id 18 
     name lhumerus
     direction 1 -4.48961e-011 -2.39475e-018   
     length 4.4661   
     axis 180 -30 -90   XYZ
    dof rx ry rz
    limits (-60.0 90.0)
           (-90.0 90.0)
           (-90.0 90.0)
  end
  begin
     id 19
     name lradius
     direction 1 -4.48961e-011 9.29328e-028   
     length 3.41414   
     axis 180 -30 -90   XYZ
    dof rx
    limits (-10.0 170.0)
  end
  begin
     id 20
     name lwrist
     direction 1 -4.48985e-011 1.53461e-026   
     length 1.70707   
     axis -1.09697e-014 90 90   XYZ
    dof ry
    limits (-180.0 0.0)
 end
  begin
     id 21 
     name lhand
     direction 1 -4.48966e-011 3.06923e-026   
     length 0.328298   
     axis -1.95843e-014 90 90   XYZ
    dof rx rz
    limits (-90.0 90.0)
           (-45.0 45.0)
  end
  begin
     id 22 
     name lfingers
     direction 1 -4.48893e-011 6.13845e-026   
     length 0.264682   
     axis -3.91686e-014 90 90   XYZ
    dof rx
    limits (0.0 90.0)
  end
  begin
     id 23
     name lthumb
     direction 0.707107 -6.34876e-011 0.707107   
     length 0.380032   
     axis -90 45 2.85299e-015   XYZ
    dof rx rz
    limits (-45.0 45.0)
           (-45.0 45.0)
  end
  begin
     id 24 
     name rclavicle
     direction -0.936955 0.347862 -0.0332887   
     length 3.26927  
     axis 0 0 0   XYZ 
    dof ry rz
    limits (-10.0 20.0)
           (-20.0 0.0)
  end
  begin
     id 25 
     name rhumerus
     direction -1 -4.4896e-011 1.78637e-018  
     length 4.40431   
     axis 180 30 90   XYZ
    dof rx ry rz
    limits (-90.0 60.0)
           (-90.0 90.0)
           (-90.0 90.0)
  end
  begin
     id 26 
     name rradius
     direction -1 -4.48955e-011 9.34036e-027   
     length 3.04688   
     axis 180 30 90   XYZ
    dof rx
    limits (-10.0 170.0)
  end
  begin
     id 27 
     name rwrist
     direction -1 -4.49011e-011 1.53461e-026   
     length 1.52344   
     axis -1.09697e-014 -90 -90   XYZ
    dof ry
    limits (-180.0 0.0)
  end
  begin
     id 28
     name rhand
     direction -1 -4.48834e-011 3.06923e-026   
     length 0.500489   
     axis -1.95843e-014 -90 -90   XYZ
    dof rx rz
    limits (-90.0 90.0)
           (-45.0 45.0)
  end
  begin
     id 29
     name rfingers
     direction -1 -4.48967e-011 6.13845e-026   
     length 0.403507   
     axis -3.91686e-014 -90 -90   XYZ
    dof rx
    limits (0.0 90.0)
  end
  begin
     id 30
     name rthumb
     direction -0.707107 -6.34826e-011 0.707107   
     length 0.579358   
     axis -90 -45 -2.85299e-015   XYZ
    dof rx rz
    limits (-45.0 45.0)
           (-45.0 45.0)
  end
:hierarchy
  begin
    root lhipjoint rhipjoint lowerback
    lhipjoint lfemur
    lfemur ltibia
    ltibia lfoot
    lfoot ltoes
    rhipjoint rfemur
    rfemur rtibia
    rtibia rfoot
    rfoot rtoes
    lowerback upperback
    upperback thorax
    thorax lowerneck lclavicle rclavicle
    lowerneck upperneck
    upperneck head
    lclavicle lhumerus
    lhumerus lradius
    lradius lwrist
    lwrist lhand lthumb
    lhand lfingers
    rclavicle rhumerus
    rhumerus rradius
    rradius rwrist
    rwrist rhand rthumb
    rhand rfingers
  end

#!OML:ASF H:\IndianDance\Patient Classification 1\Patient 1\Session 1\dancer.ASF
:FULLY-SPECIFIED
:DEGREES
1081
root 1.0757 14.7958 7.92349 -171.216 3.22286 -184.726
lowerback 2.08031 3.2404 -0.098659
upperback -3.69544 4.77539 -8.31683
thorax -4.31423 2.55382 -9.01302
lowerneck -9.43874 -11.3285 -15.2046
upperneck 15.5847 -21.084 25.5569
head 11.2469 -9.80761 8.41099
rclavicle 5.81445e-014 -1.28812e-013
rhumerus -33.5685 56.0943 -78.0712
rradius 49.7111
rwrist -68.9723
rhand 33.2648 -3.28888
rfingers 7.12502
rthumb 56.6158 -20.1905
lclavicle 5.81445e-014 -1.28812e-013
lhumerus -23.1744 -45.8301 43.1623
lradius 52.2032
lwrist 60.6892
lhand 44.1638 16.599
lfingers 7.12502
lthumb 65.7436 22.4873
rfemur 154.841 206.235 -149.006
rtibia 63.0532
rfoot 177.886 -178.642
rtoes 5.8762
lfemur -36.937 24.0981 -36.0261
ltibia 51.0233
lfoot -17.91 -0.425688
ltoes 14.5445
1082
root 1.07562 14.801 7.93201 -171.147 3.18206 -184.491
lowerback 2.18249 3.26292 0.0683266
upperback -3.78742 4.79628 -8.27361
thorax -4.45735 2.54961 -9.07991
lowerneck -9.41935 -11.362 -15.2499
upperneck 15.5409 -21.0432 25.4491
head 11.2048 -9.78933 8.3846
rclavicle 7.67309e-014 -1.1609e-013
rhumerus -33.6132 56.5786 -77.5525
rradius 49.4156
rwrist -68.9051
rhand 33.2043 -3.34666
rfingers 7.12502
rthumb 56.5624 -20.2915
lclavicle 7.67309e-014 -1.1609e-013
lhumerus -22.3752 -45.2643 41.9596
lradius 51.2004
lwrist 59.8241
lhand 44.428 16.7011
lfingers 7.12502
lthumb 65.948 22.2162
rfemur 155.596 205.989 -148.763
rtibia 61.9648
rfoot 176.567 -178.433
rtoes 4.69143
lfemur -37.5246 24.1706 -35.6677
ltibia 51.96
lfoot -17.3661 -0.90961
ltoes 13.5002
1083
root 1.07789 14.8043 7.94106 -171.082 3.13065 -184.277
lowerback 2.30713 3.27396 0.186462
upperback -3.88539 4.80096 -8.23312
thorax -4.62569 2.53865 -9.12393
lowerneck -9.42166 -11.3938 -15.2802
upperneck 15.5155 -21.0081 25.3386
head 11.1732 -9.7717 8.35286
rclavicle -4.57205e-015 -5.24792e-014
rhumerus -33.6637 57.0755 -77.0404
rradius 49.1119
rwrist -68.759
rhand 33.1373 -3.4013
rfingers 7.12502
rthumb 56.5032 -20.3938
lclavicle -4.57205e-015 -5.24792e-014
lhumerus -21.5861 -44.5914 40.7482
lradius 50.2136
lwrist 58.8945
lhand 44.6325 16.7994
lfingers 7.12502
lthumb 66.1055 22.0212
rfemur 156.342 205.758 -148.527
rtibia 60.8715
rfoot 175.391 -178.265
rtoes 3.13576
lfemur -38.1697 24.1857 -35.2823
ltibia 53.0188
lfoot -16.7751 -1.35747
ltoes 12.3274
1084
root 1.0822 14.8064 7.94992 -171.017 3.07086 -184.073
lowerback 2.4386 3.27466 0.270613
upperback -3.98681 4.79157 -8.19324
thorax -4.80649 2.52174 -9.1496
lowerneck -9.43942 -11.4202 -15.2922
upperneck 15.4887 -20.9685 25.2307
head 11.1414 -9.75039 8.31911
rclavicle 2.72335e-014 -3.81667e-014
rhumerus -33.7036 57.5622 -76.5177
rradius 48.8009
rwrist -68.5261
rhand 33.0849 -3.4512
rfingers 7.12502
rthumb 56.457 -20.4808
lclavicle 2.72335e-014 -3.81667e-014
lhumerus -20.8161 -43.8037 39.5305
lradius 49.2552
lwrist 57.9299
lhand 44.8003 16.9035
lfingers 7.12502
lthumb 66.2343 21.8815
rfemur 157.036 205.578 -148.286
rtibia 59.8299
rfoot 174.366 -178.158
rtoes 1.42233
lfemur -38.853 24.1123 -34.8481
ltibia 54.1658
lfoot -16.1725 -1.76642
ltoes 11.0675
1085
root 1.08816 14.8077 7.95773 -170.946 3.00291 -183.861
lowerback 2.55893 3.26691 0.345767
upperback -4.08953 4.77147 -8.14998
thorax -4.98516 2.49976 -9.16502
lowerneck -9.47044 -11.4429 -15.2888
upperneck 15.4523 -20.9224 25.1245
head 11.1059 -9.72474 8.2837
rclavicle -5.41688e-014 9.85972e-014
rhumerus -33.7302 58.0388 -75.9718
rradius 48.4999
rwrist -68.223
rhand 33.0575 -3.49205
rfingers 7.12502
rthumb 56.4328 -20.541
lclavicle -5.41688e-014 9.85972e-014
lhumerus -20.0705 -42.9172 38.3069
lradius 48.3346
lwrist 56.9731
lhand 44.965 17.0031
lfingers 7.12502
lthumb 66.3601 21.7393
rfemur 157.638 205.442 -148.021
rtibia 58.8851
rfoot 173.502 -178.107
rtoes -0.119786
lfemur -39.5505 23.9298 -34.3448
ltibia 55.3517
lfoot -15.6193 -2.09603
ltoes 9.76798
1086
root 1.0952 14.8066 7.96379 -170.865 2.93249 -183.632
lowerback 2.6514 3.25971 0.431702
upperback -4.19144 4.75374 -8.10126
thorax -5.14649 2.47879 -9.17793
lowerneck -9.49745 -11.4646 -15.2839
upperneck 15.3867 -20.87 25.031
head 11.0595 -9.6967 8.25343
rclavicle 4.24405e-014 -1.06549e-013
rhumerus -33.7437 58.4846 -75.3879
rradius 48.2132
rwrist -67.8676
rhand 33.0838 -3.52161
rfingers 7.12502
rthumb 56.456 -20.552
lclavicle 4.24405e-014 -1.06549e-013
lhumerus -19.3477 -41.9827 37.079
lradius 47.4792
lwrist 56.0829
lhand 45.1201 17.1107
lfingers 7.12502
lthumb 66.4783 21.6167
rfemur 158.135 205.341 -147.728
rtibia 58.0631
rfoot 172.776 -178.074
rtoes -1.18636
lfemur -40.235 23.6241 -33.7586
ltibia 56.5162
lfoot -15.1682 -2.31451
ltoes 8.55852
1087
root 1.10274 14.8024 7.96759 -170.773 2.86443 -183.378
lowerback 2.70446 3.25524 0.539515
upperback -4.29018 4.74204 -8.04616
thorax -5.27998 2.46043 -9.19254
lowerneck -9.50626 -11.4819 -15.2806
upperneck 15.2712 -20.807 24.9654
head 10.9937 -9.66578 8.23579
rclavicle -2.25621e-014 2.38542e-014
rhumerus -33.7326 58.8987 -74.7568
rradius 47.9453
rwrist -67.485
rhand 33.1716 -3.55278
rfingers 7.12502
rthumb 56.5335 -20.5209
lclavicle -2.25621e-014 2.38542e-014
lhumerus -18.6453 -41.0134 35.851
lradius 46.6831
lwrist 55.2697
lhand 45.2914 17.209
lfingers 7.12502
lthumb 66.6083 21.4581
rfemur 158.53 205.284 -147.406
rtibia 57.3771
rfoot 172.182 -178.022
rtoes -1.99672
lfemur -40.8743 23.1864 -33.083
ltibia 57.5824
lfoot -14.8763 -2.35081
ltoes 7.58491
